<?xml version="1.0" encoding="UTF-8" standalone="no"?>
<!DOCTYPE svg PUBLIC "-//W3C//DTD SVG 1.1//EN" "http://www.w3.org/Graphics/SVG/1.1/DTD/svg11.dtd">
<svg width="100%" height="100%" viewBox="0 0 120 120" version="1.1" xmlns="http://www.w3.org/2000/svg" xmlns:xlink="http://www.w3.org/1999/xlink" xml:space="preserve" xmlns:serif="http://www.serif.com/" style="fill-rule:evenodd;clip-rule:evenodd;stroke-linejoin:round;stroke-miterlimit:2;">
    <g id="Artboard1" transform="matrix(0.24,0,0,0.24,0,0)">
        <rect x="0" y="0" width="500" height="500" style="fill:none;"/>
        <g>
            <g transform="matrix(4.16667,0,0,4.16667,-4.16667,0)">
                <path d="M79,25.75C79,14.85 70.15,6 59.25,6C59.25,6 27.75,6 27.75,6C16.85,6 8,14.85 8,25.75C8,25.75 8,59.25 8,59.25C8,70.15 16.85,79 27.75,79L59.25,79C70.15,79 79,70.15 79,59.25L79,25.75ZM71,25.75L71,59.25C71,65.735 65.735,71 59.25,71L27.75,71C21.265,71 16,65.735 16,59.25L16,25.75C16,19.265 21.265,14 27.75,14L59.25,14C65.735,14 71,19.265 71,25.75Z" style="fill:url(#_Linear1);"/>
            </g>
            <g transform="matrix(4.16667,0,0,4.16667,127.083,135.417)">
                <path d="M8,42.5L8,59.25C8,70.15 16.85,79 27.75,79L59.25,79C70.15,79 79,70.15 79,59.25L79,25.75C79,14.85 70.15,6 59.25,6C59.25,6 43.5,6 43.5,6C41.292,6 39.5,7.792 39.5,10C39.5,12.208 41.292,14 43.5,14L59.25,14C65.735,14 71,19.265 71,25.75L71,59.25C71,65.735 65.735,71 59.25,71L27.75,71C21.265,71 16,65.735 16,59.25L16,42.5C16,40.292 14.208,38.5 12,38.5C9.792,38.5 8,40.292 8,42.5Z" style="fill:url(#_Linear2);"/>
            </g>
        </g>
        <g transform="matrix(4.16667,0,0,4.16667,0,0)">
            <path d="M14.828,64.828L29.31,50.347C29.31,50.347 38.075,59.112 38.075,59.112C39.606,60.643 42.078,60.678 43.651,59.191L76.748,27.907C78.352,26.39 78.423,23.857 76.907,22.252C75.39,20.648 72.857,20.577 71.252,22.093L40.982,50.705C40.982,50.705 32.138,41.862 32.138,41.862C30.576,40.3 28.044,40.3 26.482,41.862L9.172,59.172C7.611,60.733 7.611,63.267 9.172,64.828C10.733,66.389 13.267,66.389 14.828,64.828Z" style="fill:url(#_Linear3);"/>
        </g>
        <g transform="matrix(4.16667,0,0,4.16667,128.933,128.933)">
            <path d="M14.828,64.828L29.31,50.347C29.31,50.347 38.075,59.112 38.075,59.112C39.606,60.643 42.078,60.678 43.651,59.191L76.748,27.907C78.352,26.39 78.423,23.857 76.907,22.252C75.39,20.648 72.857,20.577 71.252,22.093L40.982,50.705C40.982,50.705 32.138,41.862 32.138,41.862C30.576,40.3 28.044,40.3 26.482,41.862L9.172,59.172C7.611,60.733 7.611,63.267 9.172,64.828C10.733,66.389 13.267,66.389 14.828,64.828Z" style="fill:url(#_Linear4);"/>
        </g>
        <g transform="matrix(5.48928,-0.106175,0.106175,5.48928,-34.2118,-24.9826)">
            <circle cx="27" cy="24" r="3" style="fill:url(#_Linear5);"/>
        </g>
        <g transform="matrix(5.48928,-0.106175,0.106175,5.48928,-34.2118,-24.9826)">
            <path d="M27,17.964C23.669,17.964 20.964,20.669 20.964,24C20.964,27.331 23.669,30.036 27,30.036C30.331,30.036 33.036,27.331 33.036,24C33.036,20.669 30.331,17.964 27,17.964L27,17.964ZM27,24.036C26.98,24.036 26.964,24.02 26.964,24C26.964,23.98 26.98,23.964 27,23.964C27.02,23.964 27.036,23.98 27.036,24C27.036,24.02 27.02,24.036 27,24.036L27,24.036Z" style="fill:url(#_Linear6);"/>
        </g>
    </g>
    <defs>
        <linearGradient id="_Linear1" x1="0" y1="0" x2="1" y2="0" gradientUnits="userSpaceOnUse" gradientTransform="matrix(0.243114,-104.862,104.862,0.243114,64,111.5)"><stop offset="0" style="stop-color:rgb(0,57,203);stop-opacity:1"/><stop offset="1" style="stop-color:rgb(158,0,255);stop-opacity:1"/></linearGradient>
        <linearGradient id="_Linear2" x1="0" y1="0" x2="1" y2="0" gradientUnits="userSpaceOnUse" gradientTransform="matrix(0.243114,-104.862,104.862,0.243114,32.5,79)"><stop offset="0" style="stop-color:rgb(0,57,203);stop-opacity:1"/><stop offset="1" style="stop-color:rgb(158,0,255);stop-opacity:1"/></linearGradient>
        <linearGradient id="_Linear3" x1="0" y1="0" x2="1" y2="0" gradientUnits="userSpaceOnUse" gradientTransform="matrix(0.243114,-104.862,104.862,0.243114,63,111.5)"><stop offset="0" style="stop-color:rgb(0,57,203);stop-opacity:1"/><stop offset="1" style="stop-color:rgb(158,0,255);stop-opacity:1"/></linearGradient>
        <linearGradient id="_Linear4" x1="0" y1="0" x2="1" y2="0" gradientUnits="userSpaceOnUse" gradientTransform="matrix(0.243114,-104.862,104.862,0.243114,32.0561,80.5561)"><stop offset="0" style="stop-color:rgb(0,57,203);stop-opacity:1"/><stop offset="1" style="stop-color:rgb(158,0,255);stop-opacity:1"/></linearGradient>
        <linearGradient id="_Linear5" x1="0" y1="0" x2="1" y2="0" gradientUnits="userSpaceOnUse" gradientTransform="matrix(1.72347,-79.5629,79.5629,1.72347,52.3083,90.1976)"><stop offset="0" style="stop-color:rgb(0,57,203);stop-opacity:1"/><stop offset="1" style="stop-color:rgb(158,0,255);stop-opacity:1"/></linearGradient>
        <linearGradient id="_Linear6" x1="0" y1="0" x2="1" y2="0" gradientUnits="userSpaceOnUse" gradientTransform="matrix(1.72347,-79.5629,79.5629,1.72347,52.3083,90.1976)"><stop offset="0" style="stop-color:rgb(0,57,203);stop-opacity:1"/><stop offset="1" style="stop-color:rgb(158,0,255);stop-opacity:1"/></linearGradient>
    </defs>
</svg>
