<?xml version="1.0" encoding="UTF-8" standalone="no"?>
<!DOCTYPE svg PUBLIC "-//W3C//DTD SVG 1.1//EN" "http://www.w3.org/Graphics/SVG/1.1/DTD/svg11.dtd">
<svg width="100%" height="100%" viewBox="0 0 645 400" version="1.1" xmlns="http://www.w3.org/2000/svg" xmlns:xlink="http://www.w3.org/1999/xlink" xml:space="preserve" xmlns:serif="http://www.serif.com/" style="fill-rule:evenodd;clip-rule:evenodd;stroke-linecap:round;stroke-linejoin:bevel;stroke-miterlimit:1.5;">
    <g transform="matrix(1,0,0,1,-752.235,0)">
        <g id="Artboard1" transform="matrix(0.3225,0,0,0.2,752.235,0)">
            <rect x="0" y="0" width="2000" height="2000" style="fill:none;"/>
            <g transform="matrix(0.781538,0,0,1.26023,220.402,-440.639)">
                <g transform="matrix(1,0,0,1,0,262)">
                    <path d="M1435,917.042L1435,1000L1368,1243L1368,1585.95L840.261,1506.95L838,1284L551,1000L549,561L1088,559L1088,746L823,747.278L999.501,917.042" style="fill:none;stroke:white;stroke-width:100px;"/>
                </g>
                <g transform="matrix(1,0,0,1,0,262)">
                    <path d="M681,559L681,418L870,418L870,559L870,380L1061,380L1061,559L1061,438.148L1251,438.148L1251,794.162L1072,794.162L1072,746" style="fill:none;stroke:white;stroke-width:100px;"/>
                </g>
                <g transform="matrix(1,0,0,1,0,262)">
                    <path d="M1251,479L1435,479L1435,772.195L1251,772.195" style="fill:none;stroke:white;stroke-width:100px;"/>
                </g>
            </g>
            <g transform="matrix(0.781538,0,0,1.26023,220.402,-438.118)">
                <path d="M1435,821L1545,821" style="fill:none;stroke:white;stroke-width:100px;"/>
            </g>
            <g transform="matrix(0.781538,0,0,1.26023,-560.305,-438.118)">
                <path d="M1435,821L1545,821" style="fill:none;stroke:white;stroke-width:100px;"/>
            </g>
            <g transform="matrix(0.781538,0,0,1.26023,220.402,10.5763)">
                <path d="M999.501,821L1545,821" style="fill:none;stroke:white;stroke-width:100px;"/>
            </g>
            <g transform="matrix(0.781538,0,0,1.26023,-558.665,10.5763)">
                <path d="M1435,821L1545,821" style="fill:none;stroke:white;stroke-width:100px;"/>
            </g>
            <g transform="matrix(0.689471,0,0,1.42528,226.478,-511.443)">
                <rect x="66" y="429" width="370.064" height="978" style="fill:none;stroke:white;stroke-width:93.68px;"/>
            </g>
            <g transform="matrix(0.689471,0,0,1.42528,1428.48,-511.443)">
                <rect x="66" y="429" width="370.064" height="978" style="fill:none;stroke:white;stroke-width:93.68px;"/>
            </g>
            <g transform="matrix(0.999064,0,0,2.02193,-0.614809,-1234.07)">
                <rect x="72" y="794" width="197.75" height="421" style="fill:none;stroke:white;stroke-width:68.91px;"/>
            </g>
            <g transform="matrix(0.999064,0,0,2.02193,1659.18,-1234.07)">
                <rect x="72" y="794" width="197.75" height="421" style="fill:none;stroke:white;stroke-width:68.91px;"/>
            </g>
        </g>
    </g>
</svg>
