<?xml version="1.0" encoding="UTF-8" standalone="no"?>
<!DOCTYPE svg PUBLIC "-//W3C//DTD SVG 1.1//EN" "http://www.w3.org/Graphics/SVG/1.1/DTD/svg11.dtd">
<svg width="100%" height="100%" viewBox="0 0 78 120" version="1.1" xmlns="http://www.w3.org/2000/svg" xmlns:xlink="http://www.w3.org/1999/xlink" xml:space="preserve" xmlns:serif="http://www.serif.com/" style="fill-rule:evenodd;clip-rule:evenodd;stroke-linecap:round;stroke-linejoin:round;stroke-miterlimit:1.5;">
    <g id="Artboard1" transform="matrix(0.156,0,0,0.24,0,0)">
        <rect x="0" y="0" width="500" height="500" style="fill:none;"/>
        <g transform="matrix(6.41026,0,0,4.16667,-160.256,0)">
            <path d="M78.257,65.984C87.438,60.725 93.629,50.83 93.629,39.5C93.629,22.667 79.962,9 63.129,9C46.295,9 32.629,22.667 32.629,39.5C32.629,50.841 38.804,60.745 48,66L48,102L63,113L78,103L69,97L79,89L69,81L78.257,73.118L78.257,65.984Z" style="fill:none;stroke:url(#_Linear1);stroke-width:8px;"/>
        </g>
        <g transform="matrix(9.7961,0,0,6.36746,-378.463,-82.0601)">
            <circle cx="63.5" cy="33.5" r="3.5" style="fill:rgb(118,83,255);"/>
        </g>
    </g>
    <defs>
        <linearGradient id="_Linear1" x1="0" y1="0" x2="1" y2="0" gradientUnits="userSpaceOnUse" gradientTransform="matrix(0.128576,103.914,-103.914,0.128576,63,9.00027)"><stop offset="0" style="stop-color:rgb(158,0,255);stop-opacity:1"/><stop offset="1" style="stop-color:rgb(0,57,203);stop-opacity:1"/></linearGradient>
    </defs>
</svg>
