<?xml version="1.0" encoding="UTF-8" standalone="no"?>
<!DOCTYPE svg PUBLIC "-//W3C//DTD SVG 1.1//EN" "http://www.w3.org/Graphics/SVG/1.1/DTD/svg11.dtd">
<svg width="100%" height="100%" viewBox="0 0 120 120" version="1.1" xmlns="http://www.w3.org/2000/svg" xmlns:xlink="http://www.w3.org/1999/xlink" xml:space="preserve" xmlns:serif="http://www.serif.com/" style="fill-rule:evenodd;clip-rule:evenodd;stroke-linejoin:round;stroke-miterlimit:2;">
    <g id="Artboard1" transform="matrix(0.24,0,0,0.24,0,0)">
        <rect x="0" y="0" width="500" height="500" style="fill:none;"/>
        <g transform="matrix(6.61408,0,0,6.61408,-56.8163,-67.0825)">
            <circle cx="20" cy="28" r="7" style="fill:url(#_Linear1);"/>
        </g>
        <g transform="matrix(6.61408,0,0,6.61408,-56.8163,64.8571)">
            <circle cx="20" cy="28" r="7" style="fill:url(#_Linear2);"/>
        </g>
        <g transform="matrix(6.61408,0,0,6.61408,-56.8163,194.934)">
            <circle cx="20" cy="28" r="7" style="fill:url(#_Linear3);"/>
        </g>
        <g transform="matrix(4.40939,0,0,4.16667,-45.7929,-7.85923)">
            <path d="M120,30C120,27.792 118.306,26 116.22,26L46.78,26C44.694,26 43,27.792 43,30C43,32.208 44.694,34 46.78,34L116.22,34C118.306,34 120,32.208 120,30Z" style="fill:url(#_Linear4);"/>
        </g>
        <g transform="matrix(4.40939,0,0,4.16667,-45.7929,124.08)">
            <path d="M120,30C120,27.792 118.306,26 116.22,26L46.78,26C44.694,26 43,27.792 43,30C43,32.208 44.694,34 46.78,34L116.22,34C118.306,34 120,32.208 120,30Z" style="fill:url(#_Linear5);"/>
        </g>
        <g transform="matrix(4.40939,0,0,4.16667,-45.7929,254.157)">
            <path d="M120,30C120,27.792 118.306,26 116.22,26L46.78,26C44.694,26 43,27.792 43,30C43,32.208 44.694,34 46.78,34L116.22,34C118.306,34 120,32.208 120,30Z" style="fill:url(#_Linear6);"/>
        </g>
    </g>
    <defs>
        <linearGradient id="_Linear1" x1="0" y1="0" x2="1" y2="0" gradientUnits="userSpaceOnUse" gradientTransform="matrix(3.28297e-15,53.615,-5.89487,3.60957e-16,52.0581,21)"><stop offset="0" style="stop-color:rgb(158,0,255);stop-opacity:1"/><stop offset="1" style="stop-color:rgb(0,57,203);stop-opacity:1"/></linearGradient>
        <linearGradient id="_Linear2" x1="0" y1="0" x2="1" y2="0" gradientUnits="userSpaceOnUse" gradientTransform="matrix(3.28297e-15,53.615,-5.89487,3.60957e-16,52.0581,1.0517)"><stop offset="0" style="stop-color:rgb(158,0,255);stop-opacity:1"/><stop offset="1" style="stop-color:rgb(0,57,203);stop-opacity:1"/></linearGradient>
        <linearGradient id="_Linear3" x1="0" y1="0" x2="1" y2="0" gradientUnits="userSpaceOnUse" gradientTransform="matrix(3.28297e-15,53.615,-5.89487,3.60957e-16,52.0581,-18.615)"><stop offset="0" style="stop-color:rgb(158,0,255);stop-opacity:1"/><stop offset="1" style="stop-color:rgb(0,57,203);stop-opacity:1"/></linearGradient>
        <linearGradient id="_Linear4" x1="0" y1="0" x2="1" y2="0" gradientUnits="userSpaceOnUse" gradientTransform="matrix(4.92446e-15,85.1073,-8.84231,5.72975e-16,75.5872,19.1214)"><stop offset="0" style="stop-color:rgb(158,0,255);stop-opacity:1"/><stop offset="1" style="stop-color:rgb(0,57,203);stop-opacity:1"/></linearGradient>
        <linearGradient id="_Linear5" x1="0" y1="0" x2="1" y2="0" gradientUnits="userSpaceOnUse" gradientTransform="matrix(4.92446e-15,85.1073,-8.84231,5.72975e-16,75.5872,-12.5442)"><stop offset="0" style="stop-color:rgb(158,0,255);stop-opacity:1"/><stop offset="1" style="stop-color:rgb(0,57,203);stop-opacity:1"/></linearGradient>
        <linearGradient id="_Linear6" x1="0" y1="0" x2="1" y2="0" gradientUnits="userSpaceOnUse" gradientTransform="matrix(4.92446e-15,85.1073,-8.84231,5.72975e-16,75.5872,-43.7626)"><stop offset="0" style="stop-color:rgb(158,0,255);stop-opacity:1"/><stop offset="1" style="stop-color:rgb(0,57,203);stop-opacity:1"/></linearGradient>
    </defs>
</svg>
