<svg width="123" height="75" viewBox="0 0 123 75" fill="none" xmlns="http://www.w3.org/2000/svg">
<path d="M89.9691 24.1874C89.1423 24.1874 88.4076 24.0387 87.7652 23.7412C87.1287 23.4438 86.62 22.9917 86.2393 22.3849C85.8646 21.7722 85.6593 21.0048 85.6236 20.0828L85.6415 20.0293H87.7741C87.8098 20.8918 88.0031 21.5075 88.3541 21.8763C88.7051 22.2392 89.1899 22.4206 89.8085 22.4206C90.219 22.4206 90.57 22.3314 90.8614 22.1529C91.1529 21.9745 91.376 21.7187 91.5307 21.3856C91.6853 21.0524 91.7627 20.6539 91.7627 20.1899V12.6589L90.0227 12.4001V11.0081H95.43V12.3912L94.0023 12.6589V20.1899C94.0023 20.9989 93.8477 21.7038 93.5383 22.3046C93.229 22.9054 92.7739 23.3694 92.1731 23.6966C91.5783 24.0238 90.8436 24.1874 89.9691 24.1874ZM100.588 24.1874C99.5524 24.1874 98.7434 23.8602 98.1605 23.2059C97.5834 22.5456 97.2949 21.5224 97.2949 20.1363V15.9961L96.2063 15.7284V14.3453H97.2949H99.5435V20.1542C99.5435 20.987 99.6744 21.5729 99.9361 21.912C100.204 22.2451 100.614 22.4117 101.167 22.4117C101.655 22.4117 102.069 22.3165 102.408 22.1262C102.753 21.9299 103.026 21.6533 103.229 21.2963V15.9961L102.015 15.7284V14.3453H103.229H105.477V22.3582L106.619 22.6259V24H103.487L103.336 22.6883C103.032 23.1702 102.646 23.542 102.176 23.8037C101.712 24.0595 101.182 24.1874 100.588 24.1874ZM111.732 24.1874C111.042 24.1874 110.397 24.1219 109.796 23.9911C109.201 23.8543 108.603 23.655 108.003 23.3932L107.976 20.8413H109.591L109.93 22.2332C110.186 22.3463 110.447 22.4355 110.715 22.5009C110.989 22.5604 111.292 22.5902 111.625 22.5902C112.268 22.5902 112.72 22.4771 112.982 22.2511C113.249 22.025 113.383 21.7455 113.383 21.4123C113.383 21.0911 113.243 20.8175 112.964 20.5914C112.69 20.3594 112.164 20.1601 111.384 19.9936C110.23 19.7437 109.38 19.3809 108.832 18.905C108.291 18.4231 108.02 17.7985 108.02 17.0311C108.02 16.5017 108.16 16.0228 108.44 15.5945C108.725 15.1662 109.142 14.8242 109.689 14.5684C110.242 14.3067 110.92 14.1758 111.723 14.1758C112.455 14.1758 113.103 14.2531 113.669 14.4078C114.24 14.5565 114.724 14.7558 115.123 15.0056L115.177 17.4594H113.579L113.303 16.1835C113.118 16.0526 112.904 15.9515 112.66 15.8801C112.416 15.8087 112.137 15.773 111.822 15.773C111.328 15.773 110.938 15.8831 110.653 16.1032C110.367 16.3173 110.224 16.588 110.224 16.9151C110.224 17.1055 110.269 17.278 110.358 17.4327C110.453 17.5873 110.632 17.7301 110.894 17.861C111.161 17.9859 111.551 18.1079 112.062 18.2268C113.318 18.5183 114.216 18.899 114.757 19.369C115.299 19.8389 115.569 20.4605 115.569 21.2339C115.569 22.0964 115.254 22.8043 114.623 23.3575C113.993 23.9108 113.029 24.1874 111.732 24.1874ZM120.513 24.1695C119.692 24.1695 119.052 23.9405 118.594 23.4825C118.136 23.0185 117.907 22.2808 117.907 21.2696V15.9515H116.497V14.3453H117.907V11.9986H120.147V14.3453H122.056V15.9515H120.147V21.2696C120.147 21.68 120.23 21.9804 120.397 22.1708C120.569 22.3552 120.801 22.4474 121.093 22.4474C121.259 22.4474 121.444 22.4325 121.646 22.4028C121.854 22.373 122.021 22.3433 122.145 22.3136L122.377 23.8929C122.116 23.9703 121.815 24.0357 121.476 24.0892C121.143 24.1428 120.822 24.1695 120.513 24.1695ZM93.2796 40V38.6259L94.7073 38.3492V28.6767L93.2796 28.3912V27.0081H94.7073H98.7226C99.8826 27.0081 100.897 27.2818 101.765 27.829C102.64 28.3763 103.321 29.1288 103.809 30.0866C104.296 31.0443 104.54 32.1418 104.54 33.3791V33.6379C104.54 34.8574 104.302 35.949 103.827 36.9126C103.351 37.8704 102.678 38.6259 101.81 39.1791C100.947 39.7264 99.9391 40 98.7851 40H93.2796ZM96.9558 38.2689H98.6691C99.4305 38.2689 100.079 38.0667 100.614 37.6622C101.156 37.2517 101.569 36.6985 101.855 36.0025C102.14 35.3006 102.283 34.5124 102.283 33.6379V33.3702C102.283 32.472 102.14 31.6778 101.855 30.9878C101.569 30.2918 101.156 29.7445 100.614 29.3459C100.079 28.9474 99.4305 28.7481 98.6691 28.7481H96.9558V38.2689ZM110.269 40.1874C109.341 40.1874 108.544 39.9792 107.878 39.5628C107.211 39.1464 106.7 38.5693 106.343 37.8317C105.986 37.0881 105.807 36.2345 105.807 35.2708V35.0834C105.807 34.1257 105.986 33.278 106.343 32.5404C106.7 31.8027 107.211 31.2228 107.878 30.8004C108.544 30.378 109.335 30.1669 110.251 30.1669C111.179 30.1669 111.976 30.378 112.642 30.8004C113.309 31.2168 113.82 31.7938 114.177 32.5315C114.534 33.2691 114.713 34.1197 114.713 35.0834V35.2708C114.713 36.2345 114.534 37.0881 114.177 37.8317C113.82 38.5693 113.309 39.1464 112.642 39.5628C111.982 39.9792 111.191 40.1874 110.269 40.1874ZM110.269 38.4563C110.769 38.4563 111.179 38.3225 111.5 38.0548C111.828 37.7811 112.071 37.4064 112.232 36.9305C112.393 36.4486 112.473 35.8954 112.473 35.2708V35.0834C112.473 34.4648 112.393 33.9175 112.232 33.4416C112.071 32.9657 111.828 32.5909 111.5 32.3173C111.173 32.0437 110.757 31.9068 110.251 31.9068C109.757 31.9068 109.347 32.0437 109.02 32.3173C108.693 32.5909 108.449 32.9657 108.288 33.4416C108.133 33.9175 108.056 34.4648 108.056 35.0834V35.2708C108.056 35.8954 108.133 36.4486 108.288 36.9305C108.449 37.4064 108.693 37.7811 109.02 38.0548C109.353 38.3225 109.769 38.4563 110.269 38.4563ZM86.9086 57V55.6259L87.8544 55.492L92.1553 44.0081H94.3414L98.5888 55.492L99.5346 55.6259V57H95.4032V55.6259L96.3312 55.4563L95.6442 53.413H90.8079L90.103 55.4563L91.0399 55.6259V57H86.9086ZM91.3968 51.6908H95.0642L93.3777 46.8813L93.2617 46.5333H93.2082L93.0833 46.8992L91.3968 51.6908ZM100.364 60.712V59.3289L101.667 59.0612V48.9961L100.248 48.7284V47.3453H103.684L103.827 48.4875C104.124 48.0651 104.487 47.7409 104.915 47.5149C105.343 47.2829 105.849 47.1669 106.432 47.1669C107.217 47.1669 107.889 47.381 108.449 47.8093C109.008 48.2376 109.433 48.8355 109.725 49.6028C110.022 50.3702 110.171 51.2685 110.171 52.2976V52.485C110.171 53.4249 110.022 54.2487 109.725 54.9566C109.427 55.6586 108.999 56.2059 108.44 56.5985C107.887 56.9911 107.217 57.1874 106.432 57.1874C105.879 57.1874 105.394 57.0922 104.978 56.9018C104.561 56.7055 104.204 56.42 103.907 56.0452V59.0612L105.281 59.3289V60.712H100.364ZM105.754 55.4563C106.492 55.4563 107.036 55.1857 107.387 54.6443C107.744 54.0971 107.922 53.3773 107.922 52.485V52.2976C107.922 51.6313 107.842 51.0484 107.681 50.5487C107.527 50.043 107.286 49.6504 106.959 49.3708C106.637 49.0853 106.23 48.9425 105.736 48.9425C105.32 48.9425 104.957 49.0377 104.647 49.2281C104.344 49.4125 104.097 49.6742 103.907 50.0133V54.4391C104.097 54.7663 104.344 55.0191 104.647 55.1976C104.951 55.3701 105.32 55.4563 105.754 55.4563ZM111.161 60.712V59.3289L112.464 59.0612V48.9961L111.045 48.7284V47.3453H114.481L114.623 48.4875C114.921 48.0651 115.284 47.7409 115.712 47.5149C116.14 47.2829 116.646 47.1669 117.229 47.1669C118.014 47.1669 118.686 47.381 119.245 47.8093C119.805 48.2376 120.23 48.8355 120.521 49.6028C120.819 50.3702 120.968 51.2685 120.968 52.2976V52.485C120.968 53.4249 120.819 54.2487 120.521 54.9566C120.224 55.6586 119.796 56.2059 119.237 56.5985C118.683 56.9911 118.014 57.1874 117.229 57.1874C116.676 57.1874 116.191 57.0922 115.774 56.9018C115.358 56.7055 115.001 56.42 114.704 56.0452V59.0612L116.078 59.3289V60.712H111.161ZM116.551 55.4563C117.288 55.4563 117.833 55.1857 118.184 54.6443C118.541 54.0971 118.719 53.3773 118.719 52.485V52.2976C118.719 51.6313 118.639 51.0484 118.478 50.5487C118.323 50.043 118.083 49.6504 117.755 49.3708C117.434 49.0853 117.027 48.9425 116.533 48.9425C116.116 48.9425 115.754 49.0377 115.444 49.2281C115.141 49.4125 114.894 49.6742 114.704 50.0133V54.4391C114.894 54.7663 115.141 55.0191 115.444 55.1976C115.748 55.3701 116.116 55.4563 116.551 55.4563Z" fill="white"/>
<path d="M56.3216 38.5518V40.9831L54.3579 48.1048V58.1559L38.8912 55.8406L38.8249 49.3065L30.4136 40.9831L30.355 28.117L46.1518 28.0584V33.5389L38.3853 33.5764L43.5581 38.5518" stroke="white" stroke-width="2.93077" stroke-miterlimit="1.5" stroke-linecap="round" stroke-linejoin="bevel"/>
<path d="M34.2236 28.0584V23.926H39.7628V28.0584V22.8123H45.3605V28.0584V24.5165H50.929V34.9504H45.6829V33.5389" stroke="white" stroke-width="2.93077" stroke-miterlimit="1.5" stroke-linecap="round" stroke-linejoin="bevel"/>
<path d="M50.929 25.7137H56.3216V34.3066H50.929" stroke="white" stroke-width="2.93077" stroke-miterlimit="1.5" stroke-linecap="round" stroke-linejoin="bevel"/>
<path d="M56.3216 28.117H59.5455" stroke="white" stroke-width="2.93077" stroke-miterlimit="1.5" stroke-linecap="round" stroke-linejoin="bevel"/>
<path d="M27.045 28.117H30.2689" stroke="white" stroke-width="2.93077" stroke-miterlimit="1.5" stroke-linecap="round" stroke-linejoin="bevel"/>
<path d="M43.5581 38.5518H59.5454" stroke="white" stroke-width="2.93077" stroke-miterlimit="1.5" stroke-linecap="round" stroke-linejoin="bevel"/>
<path d="M27.1066 38.5518H30.3304" stroke="white" stroke-width="2.93077" stroke-miterlimit="1.5" stroke-linecap="round" stroke-linejoin="bevel"/>
<path d="M25.7674 16.5698H16.1994V48.9866H25.7674V16.5698Z" stroke="white" stroke-width="2.74244" stroke-miterlimit="1.5" stroke-linecap="round" stroke-linejoin="bevel"/>
<path d="M70.8424 16.5698H61.2744V48.9866H70.8424V16.5698Z" stroke="white" stroke-width="2.74244" stroke-miterlimit="1.5" stroke-linecap="round" stroke-linejoin="bevel"/>
<path d="M16.0831 22.88H8.67438V42.6761H16.0831V22.88Z" stroke="white" stroke-width="2.8923" stroke-miterlimit="1.5" stroke-linecap="round" stroke-linejoin="bevel"/>
<path d="M78.3255 22.88H70.9168V42.6761H78.3255V22.88Z" stroke="white" stroke-width="2.8923" stroke-miterlimit="1.5" stroke-linecap="round" stroke-linejoin="bevel"/>
</svg>
